<!DOCTYPE svg PUBLIC "-//W3C//DTD SVG 1.1//EN" "http://www.w3.org/Graphics/SVG/1.1/DTD/svg11.dtd">
<!-- Uploaded to: SVG Repo, www.svgrepo.com, Transformed by: SVG Repo Mixer Tools -->
<svg fill="#e6e6e6" version="1.1" id="Capa_1" xmlns="http://www.w3.org/2000/svg" xmlns:xlink="http://www.w3.org/1999/xlink" width="64px" height="64px" viewBox="0 0 48.388 48.388" xml:space="preserve" stroke="#e6e6e6">
<g id="SVGRepo_bgCarrier" stroke-width="0"/>
<g id="SVGRepo_tracerCarrier" stroke-linecap="round" stroke-linejoin="round"/>
<g id="SVGRepo_iconCarrier"> <g> <path d="M48.381,23.804c-0.033-2.078-0.346-4.088-0.904-5.996c-0.205-0.705-0.445-1.396-0.717-2.068 c-0.549-1.369-1.23-2.674-2.025-3.895c-0.36-0.555-0.746-1.092-1.151-1.611c-1.115-1.424-2.396-2.711-3.813-3.832 c-0.486-0.385-0.986-0.752-1.502-1.096c-3.586-2.387-7.887-3.783-12.51-3.783c-0.039,0-0.1,0-0.535,0l-0.008,0.102l-7.246,0.15 l-3.127,2.77c0,0,0.066,3.105,0.096,4.658c-0.922,0.455-1.799,0.98-2.621,1.566c-1.242-0.662-3.738-1.988-3.738-1.988L4.481,9.6 l-4.313,8.08L0,18.236l0.984,3.541c0,0,2.893,1.535,4.342,2.307c0.006,0.986,0.1,1.947,0.287,2.891 c-1.191,0.891-3.576,2.682-3.576,2.682l-0.25,4.166l5.484,7.328c0,0,3.41,0.612,3.6,0.524c0.191-0.094,0.572-0.272,0.572-0.272 s2.266-1.696,3.4-2.547c0.887,0.461,1.813,0.862,2.785,1.188c0.037,1.229,0.115,3.694,0.115,3.694l2.768,3.125l4.645-0.146 l0.01,0.086l0.518-0.026c0.025,0,0.051,0.004,0.074,0.004c7.479,0,14.119-3.647,18.242-9.256c0.719-0.979,1.361-2.021,1.918-3.113 c1.25-2.444,2.074-5.146,2.357-8.004c0.073-0.741,0.112-1.496,0.112-2.256C48.388,24.037,48.382,23.922,48.381,23.804z M45.4,17.404c-0.715,0.758-1.531,1.469-2.427,2.131c-0.372-1.521-0.897-2.98-1.52-4.357c0.747-0.568,1.436-1.176,2.043-1.824 C44.271,14.621,44.91,15.979,45.4,17.404z M35.088,16.48c-0.457-1.85-1.018-3.6-1.617-5.199c0.963-0.375,1.85-0.828,2.662-1.342 c1.029,1.375,2.059,2.939,2.949,4.648C37.888,15.331,36.547,15.968,35.088,16.48z M39.879,16.249 c0.611,1.393,1.109,2.865,1.434,4.393c-1.555,0.938-3.299,1.738-5.193,2.369c-0.104-1.613-0.323-3.193-0.627-4.719 C37.086,17.744,38.556,17.052,39.879,16.249z M35.363,32.732c1.836-0.447,3.58-1.018,5.223-1.699 c-0.916,2.695-2.27,5.113-3.643,7.121c-1.097,0.289-2.229,0.527-3.383,0.727C34.234,37.08,34.882,35.014,35.363,32.732z M35.73,30.752c0.293-1.844,0.457-3.799,0.446-5.826c1.968-0.621,3.793-1.416,5.445-2.352c0.055,0.52,0.096,1.043,0.104,1.572 c0.025,1.596-0.168,3.145-0.506,4.629C39.527,29.572,37.681,30.234,35.73,30.752z M38.645,7.879 c1.43,1.133,2.707,2.447,3.795,3.912c-0.527,0.605-1.136,1.174-1.81,1.709c-0.908-1.719-1.938-3.289-2.974-4.672 C38.011,8.525,38.343,8.209,38.645,7.879z M37.158,6.8c-0.193,0.203-0.416,0.395-0.635,0.584c-0.563-0.688-1.111-1.311-1.627-1.869 C35.677,5.9,36.438,6.324,37.158,6.8z M30.67,3.979c0.492,0.43,2.309,2.061,4.33,4.52c-0.672,0.408-1.408,0.771-2.205,1.074 c-1.006-2.422-2.039-4.402-2.799-5.746C30.22,3.875,30.445,3.923,30.67,3.979z M26.929,3.423c0.234,0.014,0.468,0.029,0.699,0.049 c0.623,1.021,2.012,3.428,3.364,6.654c-1.375,0.348-2.858,0.545-4.42,0.545c-0.002,0-0.004,0-0.006,0 C26.711,7.295,26.854,4.725,26.929,3.423z M26.492,12.527c0.027,0,0.055,0.002,0.082,0.002c1.803,0,3.521-0.244,5.109-0.672 c0.6,1.59,1.161,3.332,1.612,5.17c-2.082,0.547-4.347,0.854-6.724,0.854c-0.088,0-0.174-0.006-0.262-0.006 C26.367,15.972,26.429,14.173,26.492,12.527z M26.188,23.466c0.02-1.273,0.047-2.521,0.075-3.736 c0.104,0.002,0.207,0.008,0.312,0.008c2.51,0,4.906-0.324,7.121-0.906c0.301,1.529,0.516,3.111,0.598,4.719 c-2.521,0.662-5.258,1.035-8.121,1.061C26.175,24.23,26.179,23.847,26.188,23.466z M14.072,23.638 c0.305-5.078,4.668-8.945,9.742-8.641c0.252,0.016,0.5,0.045,0.746,0.082c-0.104,2.578-0.174,4.568-0.152,4.57 c-0.029,1.229-0.057,2.494-0.078,3.787c-0.004,0.23,0.086,5.414,0.178,9.854c-0.586,0.082-1.184,0.129-1.799,0.092 C17.632,33.078,13.767,28.715,14.072,23.638z M26.164,26.469c2.863-0.023,5.609-0.383,8.164-1.021 c-0.025,2.01-0.24,3.945-0.572,5.77c-2.383,0.492-4.908,0.769-7.521,0.791C26.189,30.219,26.164,28.355,26.164,26.469z M26.285,33.855c2.443-0.023,4.805-0.27,7.062-0.691c-0.533,2.262-1.225,4.301-1.916,6.027c-1.598,0.189-3.234,0.299-4.91,0.309 C26.434,37.809,26.352,35.9,26.285,33.855z M28.761,44.682c-0.629,0.094-1.269,0.154-1.912,0.188 c-0.063-0.895-0.145-2.09-0.227-3.514c1.346-0.01,2.67-0.082,3.971-0.207C29.795,42.891,29.095,44.123,28.761,44.682z M32.068,43.928c-0.291,0.094-0.59,0.174-0.888,0.256c0.453-0.848,1.009-1.963,1.582-3.299c0.836-0.123,1.664-0.262,2.474-0.431 C33.82,42.219,32.589,43.438,32.068,43.928z M36.484,41.904c0.535-0.65,1.096-1.377,1.662-2.174c0.682-0.195,1.354-0.4,2.012-0.627 C39.048,40.172,37.809,41.102,36.484,41.904z M42.736,36.1c-0.959,0.441-1.972,0.832-3.006,1.195 c1.266-2.136,2.409-4.601,3.116-7.306c1.168-0.594,2.289-1.231,3.312-1.938C45.597,31.002,44.408,33.73,42.736,36.1z M46.48,25.541 c-0.959,0.771-2.015,1.484-3.15,2.139c0.18-1.155,0.275-2.346,0.254-3.563c-0.014-0.889-0.096-1.762-0.225-2.619 c0.949-0.648,1.828-1.346,2.619-2.092c0.356,1.527,0.555,3.113,0.555,4.748C46.533,24.619,46.511,25.082,46.48,25.541z"/> </g> </g>
</svg>